<?xml version="1.0" encoding="utf-8"?>
<!-- Generator: Adobe Illustrator 21.0.0, SVG Export Plug-In . SVG Version: 6.00 Build 0)  -->
<svg version="1.1" id="Layer_1" xmlns="http://www.w3.org/2000/svg" xmlns:xlink="http://www.w3.org/1999/xlink" x="0px" y="0px"
	 width="1400px" height="980px" viewBox="0 0 1400 980" style="enable-background:new 0 0 1400 980;" xml:space="preserve">
<style type="text/css">
	.st0{fill:#606060;}
</style>
<g>
	<path class="st0" d="M103.8,170c12.7,12.7,27.9,21.2,38.4,26.1c3.9,1.8,8.2,2.7,12.4,2.7c7.7,0,15.2-3,20.9-8.6l9.2-9.2
		c4.4-4.4,4.4-11.5,0-15.9L169,149.5c-4.4-4.4-11.5-4.4-15.9,0l-7.8,7.8c-1.8,1.8-4.6,2-6.5,0.5c-4.5-3.3-8.6-6.9-12.3-10.5
		c-3.7-3.7-7.2-7.8-10.5-12.3c-1.5-2-1.2-4.8,0.5-6.5l7.8-7.8c4.4-4.4,4.4-11.5,0-15.9l-15.6-15.6c-4.4-4.4-11.5-4.4-15.9,0
		l-9.2,9.2c-8.7,8.7-11.1,22.1-5.9,33.2C82.6,142.1,91.1,157.4,103.8,170z M87.9,102.7l9.2-9.2c1-1,2.3-1.5,3.6-1.5
		c1.3,0,2.6,0.5,3.6,1.5l15.6,15.6c0.9,0.9,1.5,2.2,1.5,3.6c0,1.3-0.5,2.6-1.5,3.6l-7.8,7.8c-3.9,3.9-4.4,10.2-1.1,14.6
		c3.5,4.8,7.3,9.1,11.1,13c3.9,3.9,8.3,7.6,13,11.1c4.4,3.3,10.7,2.8,14.6-1.1l7.8-7.8c2-2,5.1-2,7.1,0l15.6,15.6c2,2,2,5.1,0,7.1
		l-9.2,9.2c-6.9,6.9-17.4,8.7-26.2,4.6c-10.1-4.7-24.6-12.8-36.7-24.9c-12-12-20.2-26.6-24.9-36.7C79.2,120.2,81.1,109.6,87.9,102.7
		z"/>
	<path class="st0" d="M145.1,122.1c-0.3,1-0.1,2.2,0.6,3c0.7,0.8,1.8,1.2,2.9,1l15.7-3c5.2,2.5,10.9,3.9,16.7,3.9
		c20.9,0,37.9-17,37.9-37.9S202,51,181,51s-37.9,17-37.9,37.9c0,7.3,2.1,14.3,6,20.4L145.1,122.1z M181,57.2
		c17.5,0,31.7,14.2,31.7,31.7s-14.2,31.7-31.7,31.7c-5.2,0-10.3-1.3-14.8-3.7c-0.4-0.2-0.9-0.4-1.4-0.4c-0.2,0-0.4,0-0.6,0.1
		l-11.7,2.3l2.9-9.2c0.3-0.9,0.1-1.9-0.4-2.7c-3.7-5.3-5.7-11.6-5.7-18.1C149.3,71.4,163.5,57.2,181,57.2z"/>
	<path class="st0" d="M169.3,89.4c-2.9,2.1-4.9,4-5.9,5.6c-1.1,1.6-1.7,3.3-1.9,5h18.1v-4.9h-9.4c0.6-0.5,1-1,1.4-1.3
		c0.4-0.3,1.2-0.9,2.4-1.8c2-1.4,3.5-2.8,4.2-4c0.8-1.2,1.2-2.5,1.2-3.8c0-1.2-0.3-2.4-1-3.4s-1.6-1.7-2.8-2.2
		c-1.2-0.5-2.8-0.7-5-0.7c-2,0-3.6,0.3-4.8,0.8c-1.2,0.5-2,1.2-2.7,2.2c-0.6,1-1.1,2.3-1.3,4l6,0.5c0.2-1.2,0.5-2.1,1-2.6
		c0.5-0.5,1.1-0.7,1.9-0.7c0.7,0,1.4,0.2,1.8,0.7c0.5,0.5,0.7,1,0.7,1.7c0,0.6-0.2,1.3-0.7,1.9C172.2,87.1,171.1,88,169.3,89.4z"/>
	<path class="st0" d="M192.6,100h5.3v-4.1h2.7v-4.7h-2.7V77.9h-5.3l-11,13.1v5h11V100z M186.8,91.2l5.8-6.8v6.8H186.8z"/>
</g>
<g>
	<path class="st0" d="M394.9,170c12.7,12.7,27.9,21.2,38.4,26.1c3.9,1.8,8.2,2.7,12.4,2.7c7.7,0,15.2-3,20.9-8.6l9.2-9.2
		c4.4-4.4,4.4-11.5,0-15.9l-15.6-15.6c-4.4-4.4-11.5-4.4-15.9,0l-7.8,7.8c-1.8,1.8-4.6,2-6.5,0.5c-4.5-3.3-8.6-6.9-12.3-10.5
		c-3.7-3.7-7.2-7.8-10.5-12.3c-1.5-2-1.2-4.8,0.5-6.5l7.8-7.8c4.4-4.4,4.4-11.5,0-15.9l-15.6-15.6c-4.4-4.4-11.5-4.4-15.9,0
		l-9.2,9.2c-8.7,8.7-11.1,22.1-5.9,33.2C373.7,142.1,382.2,157.4,394.9,170z M379.1,102.7l9.2-9.2c1-1,2.3-1.5,3.6-1.5
		c1.3,0,2.6,0.5,3.6,1.5l15.6,15.6c2,2,2,5.1,0,7.1l-7.8,7.8c-3.9,3.9-4.4,10.2-1.1,14.6c3.5,4.8,7.3,9.1,11.1,13
		c3.9,3.9,8.3,7.6,13,11.1c4.4,3.3,10.7,2.8,14.6-1.1l7.8-7.8c2-2,5.1-2,7.1,0l15.6,15.6c2,2,2,5.1,0,7.1l-9.2,9.2
		c-6.9,6.9-17.4,8.7-26.2,4.6c-10.1-4.7-24.6-12.8-36.7-24.9c-12-12-20.2-26.6-24.9-36.7C370.3,120.2,372.2,109.6,379.1,102.7z"/>
	<path class="st0" d="M472.2,51c-20.9,0-37.9,17-37.9,37.9c0,7.3,2.1,14.3,6,20.4l-4,12.7c-0.3,1-0.1,2.2,0.6,3
		c0.7,0.8,1.8,1.2,2.9,1l15.7-3c5.2,2.5,10.9,3.9,16.7,3.9c20.9,0,37.9-17,37.9-37.9S493.1,51,472.2,51z M472.2,120.7
		c-5.2,0-10.2-1.2-14.8-3.7c-0.4-0.2-0.9-0.4-1.4-0.4c-0.2,0-0.4,0-0.6,0.1l-11.7,2.3l2.9-9.2c0.3-0.9,0.1-1.9-0.4-2.7
		c-3.7-5.3-5.7-11.6-5.7-18.1c0-17.5,14.2-31.7,31.7-31.7s31.7,14.2,31.7,31.7S489.7,120.7,472.2,120.7z"/>
	<circle class="st0" cx="456.5" cy="89.6" r="4.5"/>
	<circle class="st0" cx="472.2" cy="89.6" r="4.5"/>
	<circle class="st0" cx="487.8" cy="89.6" r="4.5"/>
</g>
<g>
	<path class="st0" d="M678.8,170c12.7,12.7,27.9,21.2,38.4,26.1c3.9,1.8,8.2,2.7,12.4,2.7c7.7,0,15.2-3,20.9-8.6l9.2-9.2
		c4.4-4.4,4.4-11.5,0-15.9L744,149.5c-4.4-4.4-11.5-4.4-15.9,0l-7.8,7.8c-1.8,1.8-4.6,2-6.5,0.5c-4.5-3.3-8.6-6.9-12.3-10.5
		c-3.7-3.7-7.2-7.8-10.5-12.3c-1.5-2-1.2-4.8,0.5-6.5l7.8-7.8c2.1-2.1,3.3-4.9,3.3-7.9c0-3-1.2-5.8-3.3-7.9l-15.6-15.6
		c-4.4-4.4-11.5-4.4-15.9,0l-9.2,9.2c-8.7,8.7-11.1,22.1-5.9,33.2C657.6,142.1,666.1,157.4,678.8,170z M662.9,102.7l9.2-9.2
		c1-1,2.3-1.5,3.6-1.5c1.3,0,2.6,0.5,3.6,1.5l15.6,15.6c2,2,2,5.1,0,7.1l-7.8,7.8c-3.9,3.9-4.4,10.2-1.1,14.6
		c3.5,4.8,7.3,9.1,11.1,13c3.9,3.9,8.3,7.6,13,11.1c4.4,3.3,10.7,2.8,14.6-1.1l7.8-7.8c2-2,5.1-2,7.1,0l15.6,15.6c2,2,2,5.1,0,7.1
		l-9.2,9.2c-6.9,6.9-17.4,8.7-26.2,4.6c-10.1-4.7-24.6-12.8-36.7-24.9c-12-12-20.2-26.6-24.9-36.7
		C654.2,120.2,656,109.6,662.9,102.7z"/>
	<path class="st0" d="M715,104.3c13.6,0,24.7,11.1,24.7,24.7c0,1.7,1.4,3.1,3.1,3.1s3.1-1.4,3.1-3.1c0-17.1-13.9-30.9-30.9-30.9
		c-1.7,0-3.1,1.4-3.1,3.1C711.9,102.9,713.3,104.3,715,104.3z"/>
	<path class="st0" d="M715,87.3c23,0,41.7,18.7,41.7,41.7c0,1.7,1.4,3.1,3.1,3.1s3.1-1.4,3.1-3.1c0-26.4-21.5-47.9-47.9-47.9
		c-1.7,0-3.1,1.4-3.1,3.1S713.3,87.3,715,87.3z"/>
</g>
<g>
	<path class="st0" d="M962.6,172.5c12.7,12.7,27.9,21.2,38.4,26.1c3.9,1.8,8.2,2.7,12.4,2.7c7.7,0,15.2-3,20.9-8.6l9.2-9.2
		c4.4-4.4,4.4-11.5,0-15.9l-15.6-15.6c-2.1-2.1-4.9-3.3-7.9-3.3c-3,0-5.8,1.2-7.9,3.3l-7.8,7.8c-1.8,1.8-4.6,2-6.5,0.5
		c-4.5-3.3-8.7-6.9-12.3-10.5c-3.7-3.7-7.2-7.8-10.5-12.3c-1.5-2-1.2-4.8,0.5-6.5l7.8-7.8c2.1-2.1,3.3-4.9,3.3-7.9s-1.2-5.8-3.3-7.9
		l-15.6-15.6c-2.1-2.1-4.9-3.3-7.9-3.3c-3,0-5.8,1.2-7.9,3.3l-9.2,9.2c-8.7,8.7-11.1,22.1-5.9,33.2
		C941.5,144.6,950,159.8,962.6,172.5z M946.8,105.2L956,96c0.9-0.9,2.2-1.5,3.6-1.5c1.3,0,2.6,0.5,3.6,1.5l15.6,15.6
		c2,2,2,5.1,0,7.1l-7.8,7.8c-3.9,3.9-4.4,10.2-1.1,14.6c3.5,4.8,7.3,9.1,11.1,13c3.9,3.9,8.3,7.6,13,11.1c4.4,3.3,10.7,2.8,14.6-1.1
		l7.8-7.8c2-2,5.1-2,7.1,0l15.6,15.6c2,2,2,5.1,0,7.1l-9.2,9.2c-6.9,6.9-17.4,8.7-26.2,4.6c-10.1-4.7-24.6-12.8-36.7-24.9
		c-12-12-20.2-26.6-24.9-36.7C938,122.6,939.9,112.1,946.8,105.2z"/>
	<path class="st0" d="M1007.3,133.6c0.6,0.6,1.4,0.9,2.2,0.9s1.6-0.3,2.2-0.9l17.6-17.6l3.4,3.4c0.8,0.8,2,1.1,3.1,0.8
		c1.1-0.3,1.9-1.2,2.1-2.4l5-25.8c0.2-1-0.1-2.1-0.8-2.8c-0.7-0.7-1.8-1-2.8-0.9l-25.8,5c-1.1,0.2-2,1-2.4,2.1
		c-0.3,1.1,0,2.3,0.8,3.1l3.4,3.4l-17.6,17.6c-1.2,1.2-1.2,3.2,0,4.4L1007.3,133.6z M1021.8,104.2c0.6-0.6,0.9-1.4,0.9-2.2
		c0-0.8-0.3-1.6-0.9-2.2l-1.5-1.5l15.6-3l-3,15.6l-1.5-1.5c-1.2-1.2-3.2-1.2-4.4,0l-17.6,17.6l-5.3-5.3L1021.8,104.2z"/>
</g>
<g>
	<path class="st0" d="M1246.5,172.5c12.7,12.7,27.9,21.2,38.4,26.1c3.9,1.8,8.2,2.7,12.4,2.7c7.7,0,15.2-3,20.9-8.6l9.2-9.2
		c4.4-4.4,4.4-11.5,0-15.9l-15.6-15.6c-4.4-4.4-11.5-4.4-15.9,0l-7.8,7.8c-1.8,1.8-4.6,2-6.5,0.5c-4.5-3.3-8.6-6.9-12.3-10.5
		c-3.7-3.7-7.2-7.8-10.5-12.3c-1.5-2-1.2-4.8,0.5-6.5l7.8-7.8c2.1-2.1,3.3-4.9,3.3-7.9s-1.2-5.8-3.3-7.9l-15.6-15.6
		c-4.4-4.4-11.5-4.4-15.9,0l-9.2,9.2c-8.7,8.7-11.1,22.1-5.9,33.2C1225.3,144.6,1233.8,159.8,1246.5,172.5z M1230.7,105.2l9.2-9.2
		c1-1,2.3-1.5,3.6-1.5s2.6,0.5,3.6,1.5l15.6,15.6c2,2,2,5.1,0,7.1l-7.8,7.8c-3.9,3.9-4.4,10.2-1.1,14.6c3.5,4.7,7.3,9.1,11.1,13
		c3.9,3.9,8.3,7.6,13,11.1c4.4,3.3,10.7,2.8,14.6-1.1l7.8-7.8c1.9-1.9,5.2-1.9,7.1,0L1323,172c2,2,2,5.1,0,7.1l-9.2,9.2
		c-6.9,6.9-17.4,8.7-26.2,4.6c-10.1-4.7-24.6-12.8-36.7-24.9c-12-12-20.2-26.6-24.9-36.7C1221.9,122.6,1223.8,112.1,1230.7,105.2z"
		/>
	<path class="st0" d="M1283.8,134.5c0.2,0,0.4,0,0.6-0.1l25.8-5c1.1-0.2,2-1,2.4-2.1c0.3-1.1,0-2.3-0.8-3.1l-3.4-3.4l17.6-17.6
		c1.2-1.2,1.2-3.2,0-4.4l-9.6-9.6c-1.2-1.2-3.2-1.2-4.4,0l-17.6,17.6l-3.4-3.4c-0.8-0.8-2-1.1-3.1-0.8c-1.1,0.3-1.9,1.2-2.1,2.4
		l-5,25.8c-0.2,1,0.1,2.1,0.8,2.8C1282.2,134.2,1282.9,134.5,1283.8,134.5z M1290.7,111.9l1.5,1.5c1.2,1.2,3.2,1.2,4.4,0l17.6-17.6
		l5.3,5.3l-17.6,17.6c-0.6,0.6-0.9,1.4-0.9,2.2c0,0.8,0.3,1.6,0.9,2.2l1.5,1.5l-15.6,3L1290.7,111.9z"/>
</g>
<g>
	<path class="st0" d="M102.8,422.3h4.7c1.7,0,3.1-1.4,3.1-3.1v-49.6c0-1.7-1.4-3.1-3.1-3.1h-4.7c-1.5,0-3,0.2-4.5,0.4
		c2-20.5,19.3-36.6,40.4-36.6s38.4,16.1,40.4,36.6c-1.5-0.2-3-0.4-4.5-0.4h-4.7c-1.7,0-3.1,1.4-3.1,3.1v49.6c0,1.7,1.4,3.1,3.1,3.1
		h4.7c2.2,0,4.3-0.3,6.3-0.7c-1.9,6.5-7.9,11.2-15,11.2h-11.4c-1.3-3.7-4.8-6.4-9-6.4h-13.6c-5.2,0-9.5,4.3-9.5,9.5
		c0,5.2,4.3,9.5,9.5,9.5h13.6c4.1,0,7.7-2.7,9-6.4h11.4c11.4,0,20.8-8.8,21.8-19.9c8.8-4.7,14.8-14,14.8-24.6c0-11.5-7-21.4-17-25.7
		c-1.1-24.8-21.7-44.6-46.7-44.6c-25.1,0-45.6,19.8-46.7,44.6c-10,4.2-17,14.2-17,25.7C74.9,409.8,87.4,422.3,102.8,422.3z
		 M145.5,439.2h-13.6c-1.8,0-3.3-1.5-3.3-3.3c0-1.8,1.5-3.3,3.3-3.3h13.6c1.8,0,3.3,1.5,3.3,3.3
		C148.8,437.7,147.3,439.2,145.5,439.2z M196.3,394.5c0,12-9.7,21.7-21.7,21.7H173v-43.4h1.6C186.5,372.8,196.3,382.5,196.3,394.5z
		 M102.8,372.8h1.6v43.4h-1.6c-12,0-21.7-9.7-21.7-21.7S90.9,372.8,102.8,372.8z"/>
	<path class="st0" d="M127,367.1c-2.9,2.1-4.9,4-5.9,5.6c-1.1,1.6-1.7,3.3-1.9,5h18.1v-4.9h-9.4c0.6-0.5,1-1,1.4-1.3
		c0.4-0.3,1.2-0.9,2.4-1.8c2-1.4,3.5-2.8,4.2-4c0.8-1.2,1.2-2.5,1.2-3.8c0-1.2-0.3-2.4-1-3.4c-0.7-1-1.6-1.7-2.8-2.2
		c-1.2-0.5-2.8-0.7-5-0.7c-2,0-3.6,0.3-4.8,0.8c-1.2,0.5-2,1.2-2.7,2.2c-0.6,1-1.1,2.3-1.3,4l6,0.5c0.2-1.2,0.5-2.1,1-2.6
		c0.5-0.5,1.1-0.7,1.9-0.7c0.7,0,1.4,0.2,1.8,0.7c0.5,0.5,0.7,1,0.7,1.7c0,0.6-0.2,1.3-0.7,1.9C129.9,364.8,128.8,365.8,127,367.1z"
		/>
	<path class="st0" d="M150.2,355.6l-11,13.1v5h11v4.1h5.3v-4.1h2.7v-4.7h-2.7v-13.3H150.2z M150.2,368.9h-5.8l5.8-6.8V368.9z"/>
</g>
<g>
	<path class="st0" d="M485.2,431.3c7-3.9,11.8-11.3,11.8-19.9c0-9.3-5.6-17.2-13.5-20.8c-1.1-19.8-17.6-35.6-37.6-35.6
		c-20.1,0-36.5,15.8-37.6,35.6c-8,3.5-13.5,11.5-13.5,20.8c0,12.5,10.2,22.7,22.7,22.7h3.7c1.7,0,3.1-1.4,3.1-3.1v-39.3
		c0-1.7-1.4-3.1-3.1-3.1h-3.7c-1,0-1.9,0.1-2.8,0.2c1.9-15.5,15.2-27.6,31.2-27.6c16.1,0,29.3,12.1,31.2,27.6
		c-0.9-0.1-1.9-0.2-2.8-0.2h-3.7c-1.7,0-3.1,1.4-3.1,3.1V431c0,1.7,1.4,3.1,3.1,3.1h3.7c1.4,0,2.7-0.1,4-0.4
		c-1.7,4.3-6,7.4-10.9,7.4h-8.6c-1.2-3-4.1-5.1-7.5-5.1h-10.7c-4.5,0-8.2,3.7-8.2,8.2s3.7,8.2,8.2,8.2h10.7c3.4,0,6.3-2.1,7.5-5.1
		h8.6C476.6,447.3,484.2,440.3,485.2,431.3z M418,394.9v33.1h-0.6c-9.1,0-16.5-7.4-16.5-16.5s7.4-16.5,16.5-16.5H418z M473.6,427.9
		v-33.1h0.6c9.1,0,16.5,7.4,16.5,16.5s-7.4,16.5-16.5,16.5H473.6z M451.2,446.2h-10.7c-1.1,0-2-0.9-2-2s0.9-2,2-2h10.7
		c1.1,0,2,0.9,2,2S452.2,446.2,451.2,446.2z"/>
	<path class="st0" d="M378.9,378.6c4.6,0,9.2-1.1,13.3-3l12.2,2.4c1.1,0.2,2.2-0.2,2.9-1c0.7-0.8,1-1.9,0.6-3l-3.1-9.8
		c3.1-4.9,4.7-10.5,4.7-16.3c0-16.9-13.8-30.7-30.7-30.7c-16.9,0-30.7,13.8-30.7,30.7S361.9,378.6,378.9,378.6z M378.9,323.3
		c13.5,0,24.5,11,24.5,24.5c0,5-1.5,9.9-4.4,14c-0.5,0.8-0.7,1.8-0.4,2.7l2,6.3l-8.2-1.6c-0.7-0.1-1.4,0-2,0.3
		c-3.6,1.9-7.4,2.8-11.4,2.8c-13.5,0-24.5-11-24.5-24.5C354.4,334.3,365.4,323.3,378.9,323.3z"/>
	<circle class="st0" cx="391.3" cy="348.4" r="3.5"/>
	<circle class="st0" cx="378.9" cy="348.4" r="3.5"/>
	<circle class="st0" cx="366.4" cy="348.4" r="3.5"/>
</g>
<g>
	<path class="st0" d="M723.5,342.1c-21.5,0-39.2,16.8-40.6,38c-8.6,3.3-14.7,11.5-14.7,21.2v3.4c0,12.5,10.2,22.7,22.7,22.7h5.7
		c1.7,0,3.1-1.4,3.1-3.1v-42.6c0-1.7-1.4-3.1-3.1-3.1h-5.7c-0.6,0-1.1,0-1.7,0.1c2-17.1,16.6-30.4,34.2-30.4
		c17.6,0,32.2,13.3,34.2,30.4c-0.6,0-1.1-0.1-1.7-0.1h-5.7c-1.7,0-3.1,1.4-3.1,3.1v42.6c0,1.7,1.4,3.1,3.1,3.1h5.7c1,0,2-0.1,3-0.2
		c-1.9,4.9-6.6,8.3-12.2,8.3h-9.4c-1.1-3.2-4.1-5.5-7.7-5.5h-12.5c-4.5,0-8.2,3.7-8.2,8.2v0.9c0,4.5,3.7,8.2,8.2,8.2h12.5
		c3.6,0,6.6-2.3,7.7-5.5h9.4c9.7,0,17.7-7.2,19-16.6c7.6-3.7,12.9-11.5,12.9-20.5v-3.4c0-9.7-6.1-18-14.7-21.2
		C762.6,358.9,745,342.1,723.5,342.1z M693.5,384.8v36.4h-2.6c-9.1,0-16.5-7.4-16.5-16.5v-3.4c0-9.1,7.4-16.5,16.5-16.5H693.5z
		 M731.7,439.1c0,1.1-0.9,2-2,2h-12.5c-1.1,0-2-0.9-2-2v-0.9c0-1.1,0.9-2,2-2h12.5c1.1,0,2,0.9,2,2V439.1z M772.6,401.3v3.4
		c0,9.1-7.4,16.5-16.5,16.5h-2.6v-36.4h2.6C765.1,384.8,772.6,392.2,772.6,401.3z"/>
	<path class="st0" d="M658.8,374.1c0-15,12.2-27.1,27.1-27.1c1.7,0,3.1-1.4,3.1-3.1c0-1.7-1.4-3.1-3.1-3.1
		c-18.4,0-33.3,14.9-33.3,33.3c0,1.7,1.4,3.1,3.1,3.1C657.4,377.2,658.8,375.8,658.8,374.1z"/>
	<path class="st0" d="M637.2,377.2c1.7,0,3.1-1.4,3.1-3.1c0-25.1,20.4-45.6,45.6-45.6c1.7,0,3.1-1.4,3.1-3.1c0-1.7-1.4-3.1-3.1-3.1
		c-28.6,0-51.8,23.2-51.8,51.8C634.1,375.8,635.5,377.2,637.2,377.2z"/>
</g>
<g>
	<path class="st0" d="M1013.5,355.1c-20.1,0-36.5,15.8-37.6,35.6c-8,3.5-13.5,11.5-13.5,20.8c0,12.5,10.2,22.7,22.7,22.7h3.7
		c1.7,0,3.1-1.4,3.1-3.1v-39.3c0-1.7-1.4-3.1-3.1-3.1h-3.7c-1,0-1.9,0.1-2.8,0.2c1.9-15.5,15.2-27.6,31.2-27.6
		c16.1,0,29.3,12.1,31.2,27.6c-0.9-0.1-1.9-0.2-2.8-0.2h-3.7c-1.7,0-3.1,1.4-3.1,3.1V431c0,1.7,1.4,3.1,3.1,3.1h3.7
		c1.4,0,2.7-0.1,4-0.4c-1.7,4.3-6,7.4-10.9,7.4h-8.6c-1.2-3-4.1-5.1-7.5-5.1h-10.7c-4.5,0-8.2,3.7-8.2,8.2s3.7,8.2,8.2,8.2h10.7
		c3.4,0,6.3-2.1,7.5-5.1h8.6c9.2,0,16.9-7,17.9-16c7-3.9,11.8-11.3,11.8-19.9c0-9.3-5.6-17.2-13.5-20.8
		C1050.1,370.8,1033.6,355.1,1013.5,355.1z M985.7,394.9v33.1h-0.6c-9.1,0-16.5-7.4-16.5-16.5s7.4-16.5,16.5-16.5H985.7z
		 M1018.9,446.2h-10.7c-1.1,0-2-0.9-2-2s0.9-2,2-2h10.7c1.1,0,2,0.9,2,2S1020,446.2,1018.9,446.2z M1058.5,411.4
		c0,9.1-7.4,16.5-16.5,16.5h-0.6v-33.1h0.6C1051.1,394.9,1058.5,402.3,1058.5,411.4z"/>
	<path class="st0" d="M946.6,378.6c4.6,0,9.2-1.1,13.3-3l12.2,2.4c1.1,0.2,2.2-0.2,2.9-1c0.7-0.8,1-1.9,0.6-3l-3.1-9.8
		c3.1-4.9,4.7-10.5,4.7-16.3c0-16.9-13.8-30.7-30.7-30.7c-16.9,0-30.7,13.8-30.7,30.7S929.7,378.6,946.6,378.6z M946.6,323.3
		c13.5,0,24.5,11,24.5,24.5c0,5-1.5,9.9-4.4,14c-0.5,0.8-0.7,1.8-0.4,2.7l2,6.3l-8.2-1.6c-0.7-0.1-1.4,0-2,0.3
		c-3.5,1.9-7.5,2.8-11.4,2.8c-13.5,0-24.5-11-24.5-24.5C922.1,334.3,933.1,323.3,946.6,323.3z"/>
	<path class="st0" d="M949.5,342.2c0.8,0,1.5-0.3,2.1-0.9c0.6-0.6,0.9-1.3,0.9-2.1c0-0.8-0.3-1.5-0.9-2.1c-0.6-0.6-1.3-0.9-2.1-0.9
		c-0.8,0-1.5,0.3-2.1,0.9c-0.6,0.6-0.9,1.3-0.9,2.1c0,0.8,0.3,1.5,0.9,2.1C948,341.9,948.7,342.2,949.5,342.2z"/>
	<path class="st0" d="M941.8,358.7c0.7,0.5,1.7,0.8,3,0.8h3.4c1.1,0,2-0.2,2.7-0.7c0.6-0.5,1-1.2,1-2c0-1.3-0.9-1.9-2.7-1.9h-2.4
		l3.1-7.6c0.4-0.9,0.6-1.6,0.6-2.1c0-0.6-0.2-1-0.7-1.4c-0.4-0.4-1-0.6-1.6-0.6c-1.5,0-2.5,0.8-3.2,2.4l-0.2,0.6l-3.5,8.7
		c-0.3,0.7-0.4,1.3-0.4,1.8C940.7,357.5,941.1,358.2,941.8,358.7z"/>
</g>
<g>
	<path class="st0" d="M1315.1,431.3c7-3.9,11.8-11.3,11.8-19.9c0-9.3-5.6-17.2-13.5-20.8c-1.1-19.8-17.6-35.6-37.6-35.6
		c-20.1,0-36.5,15.8-37.6,35.6c-8,3.5-13.5,11.5-13.5,20.8c0,12.5,10.2,22.7,22.7,22.7h3.7c1.7,0,3.1-1.4,3.1-3.1v-39.3
		c0-1.7-1.4-3.1-3.1-3.1h-3.7c-1,0-1.9,0.1-2.8,0.2c1.9-15.5,15.2-27.6,31.2-27.6c16.1,0,29.3,12.1,31.2,27.6
		c-0.9-0.1-1.9-0.2-2.8-0.2h-3.7c-1.7,0-3.1,1.4-3.1,3.1V431c0,1.7,1.4,3.1,3.1,3.1h3.7c1.4,0,2.7-0.1,4-0.4
		c-1.7,4.3-6,7.4-10.9,7.4h-8.6c-1.2-3-4.1-5.1-7.5-5.1h-10.7c-4.5,0-8.2,3.7-8.2,8.2s3.7,8.2,8.2,8.2h10.7c3.4,0,6.3-2.1,7.5-5.1
		h8.6C1306.4,447.3,1314.1,440.3,1315.1,431.3z M1247.9,394.9v33.1h-0.6c-9.1,0-16.5-7.4-16.5-16.5s7.4-16.5,16.5-16.5H1247.9z
		 M1303.5,427.9v-33.1h0.6c9.1,0,16.5,7.4,16.5,16.5s-7.4,16.5-16.5,16.5H1303.5z M1281.1,446.2h-10.7c-1.1,0-2-0.9-2-2s0.9-2,2-2
		h10.7c1.1,0,2,0.9,2,2S1282.1,446.2,1281.1,446.2z"/>
	<path class="st0" d="M1230.5,384.4c0.6,0.6,1.4,0.9,2.1,0.9c0.4,0,0.8-0.1,1.2-0.2c1.1-0.5,1.9-1.6,1.9-2.8v-13.4h1.5
		c1.7,0,3.1-1.4,3.1-3.1v-41c0-1.7-1.4-3.1-3.1-3.1h-71.3c-1.7,0-3.1,1.4-3.1,3.1v41c0,1.7,1.4,3.1,3.1,3.1h48.3L1230.5,384.4z
		 M1169,327.7h65.1v34.8h-1.5c-1.7,0-3.1,1.4-3.1,3.1v9.2l-11.9-11.4c-0.6-0.6-1.3-0.9-2.1-0.9H1169V327.7z"/>
	<path class="st0" d="M1191.1,341.6c-0.3,0.3-0.7,0.4-1.2,0.4c-0.6,0-1.2-0.2-1.6-0.7c-0.4-0.5-0.6-1.3-0.6-2.4c0-1,0.2-1.8,0.6-2.3
		c0.4-0.5,0.9-0.7,1.6-0.7c0.5,0,0.9,0.1,1.2,0.4c0.3,0.3,0.5,0.6,0.6,1.1l1.7-0.4c-0.2-0.7-0.5-1.2-0.9-1.6
		c-0.7-0.6-1.5-0.9-2.6-0.9c-1.2,0-2.2,0.4-3,1.2c-0.8,0.8-1.1,1.9-1.1,3.4c0,1.4,0.4,2.5,1.1,3.3c0.7,0.8,1.7,1.2,2.9,1.2
		c0.9,0,1.7-0.2,2.3-0.7c0.6-0.5,1-1.2,1.3-2.1l-1.7-0.5C1191.7,340.8,1191.5,341.3,1191.1,341.6z"/>
	<path class="st0" d="M1196.8,341.4h3.5l0.8,2h1.9l-3.5-8.8h-1.9l-3.4,8.8h1.9L1196.8,341.4z M1198.5,336.7l1.2,3.2h-2.4
		L1198.5,336.7z"/>
	<polygon class="st0" points="1205.8,334.7 1204,334.7 1204,343.4 1210.1,343.4 1210.1,341.9 1205.8,341.9 	"/>
	<polygon class="st0" points="1217.6,341.9 1213.2,341.9 1213.2,334.7 1211.5,334.7 1211.5,343.4 1217.6,343.4 	"/>
	<path class="st0" d="M1182.2,353.8c-0.3,0.3-0.7,0.4-1.2,0.4c-0.6,0-1.2-0.2-1.6-0.7c-0.4-0.5-0.6-1.3-0.6-2.4c0-1,0.2-1.8,0.6-2.3
		c0.4-0.5,0.9-0.7,1.6-0.7c0.5,0,0.9,0.1,1.2,0.4c0.3,0.3,0.5,0.6,0.6,1.1l1.7-0.4c-0.2-0.7-0.5-1.2-0.9-1.6
		c-0.7-0.6-1.5-0.9-2.6-0.9c-1.2,0-2.2,0.4-3,1.2c-0.8,0.8-1.1,1.9-1.1,3.4c0,1.4,0.4,2.5,1.1,3.3c0.7,0.8,1.7,1.2,2.9,1.2
		c0.9,0,1.7-0.2,2.3-0.7c0.6-0.5,1-1.2,1.3-2.1l-1.7-0.5C1182.8,353.1,1182.5,353.5,1182.2,353.8z"/>
	<polygon class="st0" points="1187.9,351.8 1192.3,351.8 1192.3,350.3 1187.9,350.3 1187.9,348.4 1192.6,348.4 1192.6,346.9 
		1186.2,346.9 1186.2,355.6 1192.8,355.6 1192.8,354.2 1187.9,354.2 	"/>
	<polygon class="st0" points="1199.6,352.7 1196.1,346.9 1194.3,346.9 1194.3,355.6 1196,355.6 1196,349.9 1199.5,355.6 
		1201.3,355.6 1201.3,346.9 1199.6,346.9 	"/>
	<polygon class="st0" points="1202.5,348.4 1205.1,348.4 1205.1,355.6 1206.9,355.6 1206.9,348.4 1209.5,348.4 1209.5,346.9 
		1202.5,346.9 	"/>
	<path class="st0" d="M1218.5,355.6l-1.1-1.7c-0.4-0.7-0.8-1.2-1-1.4c-0.2-0.3-0.6-0.5-0.9-0.7c0.8-0.1,1.3-0.4,1.7-0.8
		c0.4-0.4,0.6-1,0.6-1.6c0-0.5-0.1-1-0.4-1.4c-0.3-0.4-0.6-0.7-1-0.8c-0.4-0.2-1.1-0.2-2-0.2h-3.7v8.8h1.8V352h0.4
		c0.4,0,0.7,0,0.9,0.1c0.2,0.1,0.4,0.2,0.5,0.4c0.2,0.2,0.5,0.6,0.9,1.3l1.3,1.9H1218.5z M1213.7,350.6h-1.3v-2.2h1.4
		c0.7,0,1.1,0,1.3,0c0.3,0,0.5,0.2,0.7,0.3c0.2,0.2,0.2,0.4,0.2,0.7c0,0.3-0.1,0.5-0.2,0.7c-0.1,0.2-0.3,0.3-0.5,0.4
		C1215.1,350.6,1214.5,350.6,1213.7,350.6z"/>
	<polygon class="st0" points="1226.1,354.2 1221.2,354.2 1221.2,351.8 1225.6,351.8 1225.6,350.3 1221.2,350.3 1221.2,348.4 
		1225.9,348.4 1225.9,346.9 1219.4,346.9 1219.4,355.6 1226.1,355.6 	"/>
</g>
<g>
	<path class="st0" d="M138.7,695.5c11.1,0,22.2-2.6,32-7.7l31.4,6.1c1.1,0.2,2.2-0.2,2.9-1c0.7-0.8,1-1.9,0.6-3l-8.1-26
		c7.8-11.6,11.8-25.1,11.8-39.2c0-39-31.7-70.8-70.8-70.8s-70.8,31.7-70.8,70.8C67.9,663.8,99.7,695.5,138.7,695.5z M138.7,560.2
		c35.6,0,64.6,29,64.6,64.6c0,13.3-4,26-11.6,36.9c-0.5,0.8-0.7,1.8-0.4,2.7l7,22.5l-27.4-5.3c-0.7-0.1-1.4,0-2,0.3
		c-9.2,4.9-19.6,7.5-30.1,7.5c-35.6,0-64.6-29-64.6-64.6C74.1,589.1,103.1,560.2,138.7,560.2z"/>
	<path class="st0" d="M124.1,661.1h17.7c1.5,0,2.8-1.1,3.1-2.6l7.5-43.1c0.2-0.9-0.1-1.8-0.7-2.5c-0.6-0.7-1.5-1.1-2.4-1.1h-17.7
		c-1.5,0-2.8,1.1-3.1,2.6l-7.5,43.1c-0.2,0.9,0.1,1.8,0.7,2.5C122.3,660.7,123.2,661.1,124.1,661.1z M134.2,618.1h11.4l-6.4,36.9
		h-11.4L134.2,618.1z"/>
	<path class="st0" d="M133.1,609.5h17.7c1.5,0,2.8-1.1,3.1-2.6l2.6-15c0.2-0.9-0.1-1.8-0.7-2.5c-0.6-0.7-1.5-1.1-2.4-1.1h-17.7
		c-1.5,0-2.8,1.1-3.1,2.6l-2.6,15c-0.2,0.9,0.1,1.8,0.7,2.5C131.3,609.1,132.1,609.5,133.1,609.5z M138.3,594.5h11.4l-1.5,8.8h-11.4
		L138.3,594.5z"/>
</g>
<g>
	<path class="st0" d="M372.2,555.7c-1.7,0-3.1,1.4-3.1,3.1v131.9c0,1.7,1.4,3.1,3.1,3.1h100.7c1.7,0,3.1-1.4,3.1-3.1V558.8
		c0-1.7-1.4-3.1-3.1-3.1H372.2z M469.8,687.6h-94.5V561.9h94.5V687.6z"/>
	<path class="st0" d="M406.8,640.5c6.9,6.9,15.2,11.6,20.9,14.2c2.3,1.1,4.8,1.6,7.2,1.6c4.5,0,8.9-1.7,12.2-5l4.9-4.9
		c1.4-1.4,2.2-3.3,2.2-5.3c0-2-0.8-3.9-2.2-5.3l-8.4-8.4c-2.9-2.9-7.6-2.9-10.5,0l-4.2,4.2c-0.4,0.4-1.1,0.5-1.6,0.1
		c-2.4-1.7-4.5-3.6-6.4-5.5c-1.9-1.9-3.8-4.1-5.5-6.4c-0.4-0.5-0.3-1.2,0.1-1.6l4.2-4.2c2.9-2.9,2.9-7.6,0-10.5l-8.4-8.4
		c-2.9-2.9-7.6-2.9-10.5,0l-4.9,4.9c-5.1,5.1-6.5,12.9-3.4,19.4C395.2,625.3,399.9,633.6,406.8,640.5z M400.3,604.6l4.9-4.9
		c0.2-0.2,0.6-0.4,0.9-0.4c0.3,0,0.6,0.1,0.9,0.4l8.4,8.4c0.5,0.5,0.5,1.3,0,1.8l-4.2,4.2c-2.6,2.6-2.9,6.7-0.7,9.7
		c1.9,2.6,4,5,6.1,7.1c2.1,2.1,4.5,4.2,7.1,6.1c2.9,2.2,7.1,1.8,9.7-0.7l4.2-4.2c0.3-0.3,0.7-0.4,0.9-0.4c0.2,0,0.6,0,0.9,0.4
		l8.4,8.4c0.3,0.3,0.4,0.7,0.4,0.9s0,0.6-0.4,0.9l-4.9,4.9c-3.2,3.2-8.2,4.1-12.4,2.2c-5.3-2.5-12.9-6.7-19.2-13
		c-6.3-6.3-10.5-13.9-13-19.2C396.2,612.8,397.1,607.8,400.3,604.6z"/>
</g>
<g>
	<path class="st0" d="M706.4,690.2c36.1,0,65.5-29.4,65.5-65.5c0-6.7-1-13.2-3-19.5c-0.5-1.6-2.2-2.5-3.9-2c-1.6,0.5-2.5,2.2-2,3.9
		c1.8,5.7,2.7,11.7,2.7,17.7c0,32.7-26.6,59.3-59.3,59.3c-32.7,0-59.3-26.6-59.3-59.3c0-32.7,26.6-59.3,59.3-59.3
		c11,0,21.6,3,30.9,8.7l-3.4,5l18.5,1.3l-8.1-16.7l-3.5,5.2c-10.3-6.4-22.1-9.7-34.3-9.7c-36.1,0-65.5,29.4-65.5,65.5
		C640.9,660.9,670.3,690.2,706.4,690.2z"/>
	<path class="st0" d="M658.8,624.7c0,26.3,21.4,47.6,47.6,47.6c26.3,0,47.6-21.4,47.6-47.6c0-26.3-21.4-47.6-47.6-47.6
		C680.2,577.1,658.8,598.5,658.8,624.7z M703.3,601.7c-4-0.2-8-0.8-11.7-1.7c2.9-8.5,7.3-14.2,11.7-16V601.7z M703.3,607.9v13.7
		h-15.4c0.2-5.7,0.9-11,2-15.7C694.2,607.1,698.7,607.7,703.3,607.9z M703.3,627.8v13.7c-4.6,0.2-9.1,0.9-13.4,2
		c-1.1-4.7-1.8-9.9-2-15.7H703.3z M703.3,647.8v17.7c-4.5-1.8-8.8-7.5-11.7-16C695.4,648.6,699.3,648,703.3,647.8z M709.5,647.8
		c4,0.2,8,0.8,11.7,1.7c-2.9,8.5-7.3,14.2-11.7,16V647.8z M709.5,641.5v-13.7H725c-0.2,5.7-0.9,11-2,15.7
		C718.7,642.4,714.1,641.8,709.5,641.5z M709.5,621.6v-13.7c4.6-0.2,9.1-0.9,13.4-2c1.1,4.7,1.8,9.9,2,15.7H709.5z M709.5,601.7V584
		c4.5,1.8,8.8,7.5,11.7,16C717.5,600.9,713.6,601.5,709.5,601.7z M685.8,598.2c-2.7-1-5.3-2.3-7.6-3.7c3.9-3.7,8.6-6.6,13.7-8.5
		C689.5,589.3,687.4,593.4,685.8,598.2z M684,604.1c-1.3,5.3-2.1,11.2-2.3,17.5h-16.6c0.6-8.5,3.8-16.2,8.8-22.5
		C677,601.1,680.4,602.8,684,604.1z M681.7,627.8c0.2,6.3,1,12.2,2.3,17.5c-3.7,1.3-7.1,3-10.1,5c-5-6.3-8.1-14.1-8.8-22.5H681.7z
		 M685.8,651.3c1.6,4.8,3.7,8.9,6.1,12.2c-5.1-1.9-9.8-4.9-13.7-8.5C680.5,653.6,683,652.3,685.8,651.3z M727.1,651.3
		c2.7,1,5.3,2.3,7.6,3.7c-3.9,3.7-8.6,6.6-13.7,8.5C723.4,660.2,725.5,656.1,727.1,651.3z M728.8,645.4c1.3-5.3,2.1-11.2,2.3-17.5
		h16.6c-0.6,8.5-3.8,16.2-8.8,22.5C735.9,648.4,732.5,646.7,728.8,645.4z M731.1,621.6c-0.2-6.3-1-12.2-2.3-17.5
		c3.7-1.3,7.1-3,10.1-5c5,6.3,8.1,14.1,8.8,22.5H731.1z M727.1,598.2c-1.6-4.8-3.7-8.9-6.1-12.2c5.1,1.9,9.8,4.9,13.7,8.5
		C732.4,595.9,729.8,597.1,727.1,598.2z"/>
</g>
<g>
	<path class="st0" d="M971.1,615.9v-17.7c0-1.7-1.4-3.1-3.1-3.1s-3.1,1.4-3.1,3.1v17.7c-3.7,1.3-6.3,4.8-6.3,8.8
		c0,1.5,0.3,2.8,0.9,4.1l-18.6,18.6c-1.2,1.2-1.2,3.2,0,4.4c0.6,0.6,1.4,0.9,2.2,0.9c0.8,0,1.6-0.3,2.2-0.9l18.6-18.6
		c1.2,0.6,2.6,0.9,4.1,0.9c5.2,0,9.4-4.2,9.4-9.4C977.3,620.7,974.7,617.2,971.1,615.9z M968,627.9c-1.8,0-3.2-1.4-3.2-3.2
		c0-1.8,1.4-3.2,3.2-3.2c1.8,0,3.2,1.4,3.2,3.2C971.1,626.5,969.7,627.9,968,627.9z"/>
	<path class="st0" d="M1065.7,636.3h-42.8c0.8-3.8,1.2-7.6,1.2-11.5c0-31-25.2-56.1-56.1-56.1s-56.1,25.2-56.1,56.1
		c0,31,25.2,56.1,56.1,56.1c5.9,0,11.6-0.9,17.2-2.7c0.2,1.5,1.5,2.7,3.1,2.7h77.5c1.7,0,3.1-1.4,3.1-3.1v-38.4
		C1068.8,637.7,1067.4,636.3,1065.7,636.3z M918,624.7c0-27.5,22.4-49.9,49.9-49.9c27.5,0,49.9,22.4,49.9,49.9
		c0,3.9-0.5,7.8-1.4,11.5h-28.3c-1.7,0-3.1,1.4-3.1,3.1v32.3c-5.5,2-11.2,3-17.1,3C940.4,674.7,918,652.3,918,624.7z M1062.6,674.7
		h-71.3v-0.9c0,0,0,0,0,0v-31.3h71.3V674.7z"/>
	<path class="st0" d="M1006.9,659.9c-2.1,1.9-3.5,3.5-4.2,4.7c-0.7,1.2-1.1,2.4-1.3,3.7h13.1v-3.5h-7.4c0.2-0.3,0.4-0.7,0.8-1
		c0.3-0.4,1.1-1.1,2.2-2.1c1.2-1.1,2-1.9,2.4-2.5c0.7-0.9,1.2-1.7,1.5-2.5c0.3-0.8,0.5-1.6,0.5-2.5c0-1.5-0.5-2.8-1.6-3.9
		c-1.1-1-2.6-1.6-4.5-1.6c-1.7,0-3.2,0.4-4.4,1.3c-1.2,0.9-1.9,2.4-2.1,4.4l3.7,0.4c0.1-1.1,0.3-1.9,0.8-2.3
		c0.5-0.5,1.1-0.7,1.9-0.7c0.8,0,1.4,0.2,1.8,0.7c0.4,0.4,0.7,1.1,0.7,1.9c0,0.8-0.3,1.5-0.8,2.3
		C1009.6,657.3,1008.6,658.4,1006.9,659.9z"/>
	<path class="st0" d="M1024.3,668.3h3.6v-3.9h2.4v-3.3h-2.4v-12.3h-3.1l-8.4,12.3v3.3h8V668.3z M1019.9,661.1l4.5-6.6v6.6H1019.9z"
		/>
	<polygon class="st0" points="1038.5,648.5 1035.7,648.5 1030.9,668.6 1033.7,668.6 	"/>
	<path class="st0" d="M1043.9,660.1c-1,2.8-1.6,5.5-1.7,8.2h3.6c0-1.7,0.3-3.7,0.8-5.8c0.6-2.2,1.4-4.2,2.5-6.2
		c1.1-1.9,2.2-3.4,3.2-4.5v-2.7h-12.7v3.5h8.5C1046.4,654.8,1045,657.3,1043.9,660.1z"/>
</g>
<g>
	<path class="st0" d="M1305.5,654c0.6,0.6,1.4,0.9,2.2,0.9c0.8,0,1.6-0.3,2.2-0.9c16.1-16.1,16.1-42.3,0-58.5
		c-1.2-1.2-3.2-1.2-4.4,0c-1.2,1.2-1.2,3.2,0,4.4c13.7,13.7,13.7,36,0,49.7C1304.3,650.8,1304.3,652.8,1305.5,654z"/>
	<path class="st0" d="M1324.3,671.4c0.8,0,1.6-0.3,2.2-0.9c25.2-25.2,25.2-66.3,0-91.5c-1.2-1.2-3.2-1.2-4.4,0
		c-1.2,1.2-1.2,3.2,0,4.4c22.8,22.8,22.8,59.9,0,82.7c-1.2,1.2-1.2,3.2,0,4.4C1322.7,671.1,1323.5,671.4,1324.3,671.4z"/>
	<path class="st0" d="M1242.8,595.5c-1.2-1.2-3.2-1.2-4.4,0c-16.1,16.1-16.1,42.3,0,58.5c0.6,0.6,1.4,0.9,2.2,0.9
		c0.8,0,1.6-0.3,2.2-0.9c1.2-1.2,1.2-3.2,0-4.4c-13.7-13.7-13.7-36,0-49.7C1244,598.7,1244,596.7,1242.8,595.5z"/>
	<path class="st0" d="M1224.1,671.4c0.8,0,1.6-0.3,2.2-0.9c1.2-1.2,1.2-3.2,0-4.4c-22.8-22.8-22.8-59.9,0-82.7
		c1.2-1.2,1.2-3.2,0-4.4c-1.2-1.2-3.2-1.2-4.4,0c-25.2,25.2-25.2,66.3,0,91.5C1222.5,671.1,1223.3,671.4,1224.1,671.4z"/>
	<path class="st0" d="M1251.1,624.7c0,12.7,10.3,23,23,23s23-10.3,23-23s-10.3-23-23-23S1251.1,612,1251.1,624.7z M1291,624.7
		c0,9.3-7.6,16.8-16.8,16.8c-9.3,0-16.8-7.6-16.8-16.8c0-9.3,7.6-16.8,16.8-16.8C1283.4,607.9,1291,615.5,1291,624.7z"/>
</g>
<g>
	<path class="st0" d="M165.5,801c-6.2,0-11.2,5-11.2,11.2v15.7h-50.5c-1.7,0-3.1,1.4-3.1,3.1v94.5c0,1.7,1.4,3.1,3.1,3.1h69.7
		c1.7,0,3.1-1.4,3.1-3.1V812.1C176.6,806,171.6,801,165.5,801z M170.4,922.3H107V834h50.5c1.7,0,3.1-1.4,3.1-3.1v-18.8
		c0-2.7,2.2-5,5-5c2.7,0,5,2.2,5,5V922.3z"/>
	<path class="st0" d="M162.2,838.2h-47c-1.7,0-3.1,1.4-3.1,3.1v31.4c0,1.7,1.4,3.1,3.1,3.1h47c1.7,0,3.1-1.4,3.1-3.1v-31.4
		C165.3,839.6,163.9,838.2,162.2,838.2z M159.1,869.6h-40.8v-25.2h40.8V869.6z"/>
	<path class="st0" d="M193.4,840.3c-1.2-1.2-3.2-1.2-4.4,0c-1.2,1.2-1.2,3.2,0,4.4c5.4,5.4,8.3,12.5,8.3,20c0,7.6-2.9,14.7-8.3,20
		c-1.2,1.2-1.2,3.2,0,4.4c0.6,0.6,1.4,0.9,2.2,0.9c0.8,0,1.6-0.3,2.2-0.9c6.5-6.5,10.1-15.2,10.1-24.4
		C203.5,855.5,199.9,846.8,193.4,840.3z"/>
	<path class="st0" d="M202.6,826.7c-1.2,1.2-1.2,3.2,0,4.4c9,9,13.9,20.9,13.9,33.6c0,12.7-4.9,24.7-13.9,33.6
		c-1.2,1.2-1.2,3.2,0,4.4c0.6,0.6,1.4,0.9,2.2,0.9s1.6-0.3,2.2-0.9c10.2-10.2,15.7-23.7,15.7-38s-5.6-27.9-15.7-38
		C205.8,825.5,203.8,825.5,202.6,826.7z"/>
	<path class="st0" d="M88.4,840.3c-1.2-1.2-3.2-1.2-4.4,0c-6.5,6.5-10.1,15.2-10.1,24.4c0,9.2,3.6,17.9,10.1,24.4
		c0.6,0.6,1.4,0.9,2.2,0.9c0.8,0,1.6-0.3,2.2-0.9c1.2-1.2,1.2-3.2,0-4.4c-5.4-5.4-8.3-12.5-8.3-20c0-7.6,2.9-14.7,8.3-20
		C89.6,843.5,89.6,841.5,88.4,840.3z"/>
	<path class="st0" d="M60.8,864.7c0-12.7,4.9-24.7,13.9-33.6c1.2-1.2,1.2-3.2,0-4.4c-1.2-1.2-3.2-1.2-4.4,0
		c-10.2,10.2-15.7,23.7-15.7,38s5.6,27.9,15.7,38c0.6,0.6,1.4,0.9,2.2,0.9s1.6-0.3,2.2-0.9c1.2-1.2,1.2-3.2,0-4.4
		C65.8,889.4,60.8,877.4,60.8,864.7z"/>
</g>
<g>
	<path class="st0" d="M431.5,877.7l5.5-31.4c0.2-0.9-0.1-1.8-0.7-2.5c-0.6-0.7-1.5-1.1-2.4-1.1H421c-1.5,0-2.8,1.1-3.1,2.6
		l-5.5,31.4c-0.2,0.9,0.1,1.8,0.7,2.5c0.6,0.7,1.5,1.1,2.4,1.1h12.9C429.9,880.2,431.2,879.1,431.5,877.7z M419.2,874l4.4-25.2h6.6
		l-4.4,25.2H419.2z"/>
	<path class="st0" d="M422.7,840.1h12.9c1.5,0,2.8-1.1,3.1-2.6l1.9-10.9c0.2-0.9-0.1-1.8-0.7-2.5c-0.6-0.7-1.5-1.1-2.4-1.1h-12.9
		c-1.5,0-2.8,1.1-3.1,2.6l-1.9,10.9c-0.2,0.9,0.1,1.8,0.7,2.5C420.9,839.7,421.8,840.1,422.7,840.1z M427.2,829.2h6.6l-0.8,4.7h-6.6
		L427.2,829.2z"/>
	<path class="st0" d="M490.2,832.5c-10.9-17.8-35.3-30.3-63.7-30.3c-38.5,0-69.7,22.9-69.7,50.9c0,14.2,8,27.6,22.1,37.2l-5.1,23.2
		c-0.3,1.2,0.2,2.5,1.2,3.2c0.5,0.4,1.2,0.6,1.8,0.6c0.6,0,1.1-0.2,1.6-0.5l25.2-15.6c3,0.8,6.1,1.4,9.2,1.8c9.4,3.9,20.1,6,31.1,6
		c7,0,13.9-0.8,20.4-2.5l22.4,13.8c0.5,0.3,1.1,0.5,1.6,0.5c0.6,0,1.3-0.2,1.8-0.6c1-0.7,1.5-2,1.2-3.2l-4.5-20.5
		c12.5-8.6,19.7-20.7,19.7-33.4C506.5,851.9,500.7,840.9,490.2,832.5z M401.5,895.3l-20.1,12.4l4-18.1c0.3-1.3-0.3-2.6-1.4-3.3
		c-13.4-8.5-21-20.6-21-33.2c0-24.7,28.5-44.7,63.6-44.7s63.6,20.1,63.6,44.7c0,24.7-28.5,44.7-63.6,44.7c-7.8,0-15.4-1-22.6-2.9
		C403.1,894.8,402.2,894.9,401.5,895.3z M481.6,892.7c-1.1,0.7-1.6,2-1.4,3.3l3.4,15.4l-17.3-10.7c-0.7-0.4-1.6-0.6-2.4-0.4
		c-6.4,1.7-13.2,2.6-20.1,2.6c-0.7,0-1.4,0-2.1-0.1c31.2-5.1,54.6-25.4,54.6-49.7c0-1.7-0.1-3.4-0.3-5c2.8,4.8,4.3,9.9,4.3,15.2
		C500.3,874.5,493.5,885.2,481.6,892.7z"/>
</g>
<g>
	<path class="st0" d="M765.1,832.6c-10.9-17.9-35.3-30.3-63.8-30.3c-38.5,0-69.7,22.9-69.7,50.9c0,14.2,8,27.6,22.1,37.2l-5.1,23.2
		c-0.3,1.2,0.2,2.5,1.2,3.2c0.5,0.4,1.2,0.6,1.8,0.6c0.6,0,1.1-0.2,1.6-0.5l25.2-15.6c3,0.8,6,1.4,9.1,1.8c9.4,3.9,20.2,6,31.1,6
		c7,0,13.9-0.8,20.4-2.5l22.4,13.8c0.5,0.3,1.1,0.5,1.6,0.5c0.6,0,1.3-0.2,1.8-0.6c1-0.7,1.5-2,1.2-3.2l-4.5-20.5
		c12.5-8.6,19.7-20.7,19.7-33.4C781.3,851.9,775.5,841,765.1,832.6z M676.3,895.3l-20.1,12.4l4-18.1c0.3-1.3-0.3-2.6-1.4-3.3
		c-13.4-8.5-21-20.6-21-33.2c0-24.7,28.5-44.7,63.6-44.7c26.3,0,48.9,11.3,58.6,27.4c0.1,0.2,0.2,0.5,0.4,0.7
		c3,5.2,4.6,10.8,4.6,16.7c0,24.7-28.5,44.7-63.6,44.7c-7.8,0-15.4-1-22.6-2.9C677.9,894.8,677,894.9,676.3,895.3z M756.4,892.7
		c-1.1,0.7-1.6,2-1.4,3.3l3.4,15.4l-17.3-10.7c-0.7-0.4-1.6-0.6-2.4-0.4c-6.4,1.7-13.2,2.6-20.1,2.6c-0.7,0-1.4,0-2.1-0.1
		c31.2-5.1,54.6-25.4,54.6-49.7c0-1.7-0.1-3.3-0.3-4.9c2.8,4.7,4.3,9.9,4.3,15.1C775.1,874.5,768.3,885.2,756.4,892.7z"/>
	<path class="st0" d="M701.8,872.9c-0.6-0.7-1.5-1.1-2.4-1.1h-10.7c-1.5,0-2.7,1-3,2.5l-2.2,10.5c-0.2,0.9,0,1.9,0.6,2.6
		c0.6,0.7,1.5,1.1,2.4,1.1h10.7c1.5,0,2.7-1,3-2.5l2.2-10.5C702.6,874.5,702.3,873.6,701.8,872.9z M694.6,882.2h-4.4l0.9-4.3h4.4
		L694.6,882.2z"/>
	<path class="st0" d="M695.9,842.7c0.6-2.7,1.5-4.6,2.8-5.7c1.2-1,2.8-1.6,4.9-1.6c2.3,0,3.3,0.5,3.7,0.8c0.5,0.5,0.8,0.9,0.8,1.5
		c0,0.5-0.2,1-0.6,1.6c-0.2,0.3-1.3,1.7-6.6,6.3c-5.1,4.4-8.4,7.9-10.2,10.6c-1.8,2.8-3,6.2-3.6,10c-0.1,0.9,0.1,1.8,0.7,2.5
		c0.6,0.7,1.4,1.1,2.3,1.1h9.7c1.5,0,2.8-1.1,3-2.5c0.3-1.6,0.7-2.9,1.3-3.7c0.3-0.4,1.6-1.9,6.2-5.8c6.3-5.2,9.9-8.8,11.4-11.4
		c1.6-2.7,2.4-5.4,2.4-8.2c0-4.7-1.9-8.8-5.6-12.1c-3.6-3.2-8.7-4.9-14.9-4.9c-5.9,0-11.1,1.7-15.3,4.9c-4.2,3.3-7.1,7.7-8.5,13.3
		c-0.2,0.8-0.1,1.7,0.4,2.5c0.5,0.7,1.2,1.2,2.1,1.4l9.9,1.7C694,845.4,695.5,844.3,695.9,842.7z M687,837.8c1.2-2.7,2.9-5,5.2-6.7
		c3.1-2.4,6.9-3.6,11.5-3.6c4.7,0,8.3,1.1,10.8,3.3c2.4,2.1,3.6,4.6,3.6,7.5c0,1.7-0.5,3.3-1.5,5c-0.6,1.1-2.8,3.7-10.1,9.8
		c-5.2,4.4-6.7,6.1-7.3,7c-0.7,1-1.3,2.2-1.8,3.6H694c0.5-1.5,1.1-2.8,1.9-4c1.4-2.2,4.5-5.3,9-9.3c5.7-5,7.1-6.7,7.7-7.7
		c1-1.6,1.6-3.3,1.6-4.9c0-2.5-1-4.6-2.9-6.3c-1.8-1.5-4.4-2.3-7.7-2.3c-3.6,0-6.6,1-8.9,3.1c-1.7,1.5-3.1,3.5-4,6.2L687,837.8z"/>
</g>
<path class="st0" d="M1059.7,853.7c-8.4-31.4-36.6-53.3-69.4-53.3c-32.7,0-61,21.8-69.4,53.3c-4,1.5-6.9,5.3-6.9,9.9v17.4
	c0,5.8,4.7,10.5,10.5,10.5h6.4c1.3,1,3.9,2.9,7.9,4.8c9.1,19.3,28.7,32.7,51.4,32.7c24.6,0,45.5-15.7,53.4-37.6h12.3
	c5.8,0,10.5-4.7,10.5-10.5v-17.4C1066.6,859,1063.7,855.2,1059.7,853.7z M990.3,806.6c29.1,0,54.4,18.9,62.7,46.4h-9.3
	c-7.9-21.9-28.9-37.6-53.4-37.6s-45.5,15.7-53.4,37.6h-9.3C935.9,825.5,961.2,806.6,990.3,806.6z M990.3,821.6
	c25.4,0,46.4,18.8,50,43.2c-33.6-1.3-65.7-20.7-66-20.9c-0.7-0.5-1.6-0.6-2.4-0.3c-0.8,0.2-1.5,0.8-1.9,1.6
	c-10.4,20-24.2,21.9-30,21.8C942.7,841.5,964.2,821.6,990.3,821.6z M920.2,880.9v-17.4c0-2.4,1.9-4.3,4.3-4.3H935
	c-0.8,3.4-1.3,6.8-1.5,10.4c0,0,0,0,0,0.1c0,0.8-0.1,1.7-0.1,2.5c0,4.5,0.5,8.8,1.5,13h-10.5C922.2,885.2,920.2,883.3,920.2,880.9z
	 M990.3,922.8c-17.7,0-33.3-9.1-42.3-22.9c7.3,2.4,17.2,4.3,29.8,4.7c1.1,3.5,4.4,6,8.2,6h8.4c4.8,0,8.6-3.9,8.6-8.6v-0.9
	c0-4.8-3.9-8.6-8.6-8.6H986c-3.8,0-7,2.5-8.2,5.9c-16.2-0.5-27.3-3.8-34.3-6.8c-2.4-5.7-3.7-11.9-3.8-18.5c0.2,0,0.5,0,0.7,0
	c7.3,0,22-2.7,33.4-22.3c8.8,5,37,19.3,67,20.3c0,0.4,0,0.8,0,1.2C1040.9,900.1,1018.2,922.8,990.3,922.8z M983.6,902v-0.9
	c0-1.3,1.1-2.4,2.4-2.4h8.4c1.3,0,2.4,1.1,2.4,2.4v0.9c0,1.3-1.1,2.4-2.4,2.4H986C984.7,904.4,983.6,903.3,983.6,902z M1060.4,880.9
	c0,2.4-1.9,4.3-4.3,4.3h-10.5c1-4.2,1.5-8.5,1.5-13c0-4.5-0.5-8.8-1.5-13h10.5c2.4,0,4.3,1.9,4.3,4.3V880.9z"/>
<g>
	<path class="st0" d="M1332.2,807.4h-98.5c-1.7,0-3.1,1.4-3.1,3.1v11.8h-14.6c-1.7,0-3.1,1.4-3.1,3.1v72.3c0,1.7,1.4,3.1,3.1,3.1
		h13.9v18.1c0,1.3,0.8,2.4,1.9,2.9c0.4,0.2,0.8,0.2,1.2,0.2c0.8,0,1.6-0.3,2.2-0.9l20.2-20.2h52.3l5.3,5.3c0.6,0.6,1.4,0.9,2.2,0.9
		c0.4,0,0.8-0.1,1.2-0.2c1.2-0.5,1.9-1.6,1.9-2.9v-18.1h13.9c1.7,0,3.1-1.4,3.1-3.1v-72.3C1335.3,808.8,1334,807.4,1332.2,807.4z
		 M1254.2,894.7c-0.8,0-1.6,0.3-2.2,0.9l-15.9,15.9v-13.7c0-1.7-1.4-3.1-3.1-3.1h-13.9v-66.1h11.5v54.3c0,1.7,1.4,3.1,3.1,3.1h59.1
		l8.7,8.7H1254.2z M1329.2,879.8h-13.9c-1.7,0-3.1,1.4-3.1,3.1v13.7l-1-1c0,0,0,0,0,0l-14.9-14.9c-0.6-0.6-1.4-0.9-2.2-0.9h-57.3
		v-66.1h92.3V879.8z"/>
	<circle class="st0" cx="1261.3" cy="846.7" r="6.2"/>
	<circle class="st0" cx="1283" cy="846.7" r="6.2"/>
	<circle class="st0" cx="1304.7" cy="846.7" r="6.2"/>
</g>
</svg>
